PathFileType	4	(X/Y/Z)	./resultDataOpenSim/trcMotMarkerGrf/sub09/qtm-15-03.trc
DataRate	CameraRate	NumFrames	NumMarkers	Units	OrigDataRate	OrigDataStartFrame	OrigNumFrames
250.000000	250.000000	12	24	m	250.000000	186	494
Frame#	Time	L.Toe.Tip			R.Toe.Tip			L.Ankle.Lat			R.Ankle.Lat			L.Ankle.Med			R.Ankle.Med			L.Heel			R.Heel			L.Knee.Lat			R.Knee.Lat			L.Knee.Med			R.Knee.Med			L.Thigh.Upper			R.Thigh.Upper			L.ASIS			R.ASIS			V.Sacral			L.Acromium			R.Acromium			C7			L.Elbow			R.Elbow			L.Wrist.Lat			R.Wrist.Lat
		X1	Y1	Z1	X2	Y2	Z2	X3	Y3	Z3	X4	Y4	Z4	X5	Y5	Z5	X6	Y6	Z6	X7	Y7	Z7	X8	Y8	Z8	X9	Y9	Z9	X10	Y10	Z10	X11	Y11	Z11	X12	Y12	Z12	X13	Y13	Z13	X14	Y14	Z14	X15	Y15	Z15	X16	Y16	Z16	X17	Y17	Z17	X18	Y18	Z18	X19	Y19	Z19	X20	Y20	Z20	X21	Y21	Z21	X22	Y22	Z22	X23	Y23	Z23	X24	Y24	Z24

186	0.74	0.096541987	-0.058158821	-0.019239232	-0.57835701	0.08162957	0.091420287	-0.044142372	-0.025985461	-0.089317007	-0.61951142	0.23049499	0.12097223	-0.040918147	-0.00548727	0.0083591985	-0.56047037	0.22526497	0.040424913	-0.12097379	-0.065157172	-0.059537851	-0.65629585	0.2767018	0.061219091	0.002062859	0.39208173	-0.13343085	-0.20793297	0.39851992	0.19387527	-0.014373187	0.39425544	-0.009884601	-0.19457672	0.37067989	0.070877305	-0.13191538	0.79394751	-0.18448345	-0.18474216	0.79514914	0.18622204	-0.052547921	0.87389515	-0.11480976	-0.069268649	0.87371259	0.12436888	-0.22619658	0.93552104	-0.011587228	-0.1066847	1.3306129	-0.18472968	-0.15392019	1.3478271	0.14472933	-0.19117531	1.381515	-0.026501026	-0.27538983	1.0063665	-0.23253209	-0.26804138	1.0062909	0.25564381	-0.16723795	0.77065375	-0.29237981	-0.079413322	0.81016462	0.27944975
187	0.744	0.096374259	-0.058246411	-0.019232823	-0.56715698	0.086568612	0.092601851	-0.043479567	-0.026456716	-0.090137148	-0.60675152	0.23594119	0.12150231	-0.040955682	-0.0052812914	0.0074325347	-0.54811026	0.23011144	0.040434951	-0.12092404	-0.065066595	-0.060763531	-0.64358229	0.28228583	0.061605433	0.0073855511	0.39131475	-0.13443891	-0.19289282	0.39695895	0.19341344	-0.0059149773	0.3931122	-0.010463882	-0.18179999	0.37049187	0.070442658	-0.12816065	0.79441121	-0.18377575	-0.1785884	0.79320209	0.18620773	-0.046676823	0.87525285	-0.11553667	-0.063913685	0.87292763	0.12396585	-0.2213031	0.93414614	-0.011535319	-0.097961332	1.3301984	-0.18506116	-0.14664892	1.3477711	0.14419347	-0.1835536	1.3811998	-0.027460676	-0.26590588	1.0055146	-0.2340032	-0.2614833	1.0059024	0.25393195	-0.15807846	0.76951716	-0.29277361	-0.074793401	0.80864205	0.28022224
188	0.748	0.09618883	-0.058352233	-0.019225578	-0.55505899	0.091673819	0.093709528	-0.042769841	-0.026976094	-0.090763999	-0.59351567	0.24138324	0.12209611	-0.041125559	-0.0051806644	0.0066904791	-0.53548334	0.23488744	0.04046866	-0.12089986	-0.064940467	-0.061821657	-0.63066116	0.28762309	0.061985294	0.012300979	0.3902073	-0.13526491	-0.17797843	0.39577537	0.19291503	0.00116704	0.39138506	-0.011183071	-0.16877653	0.37022139	0.069740206	-0.12375024	0.79470746	-0.18327326	-0.17237246	0.79160105	0.18612304	-0.040712613	0.87650586	-0.11619112	-0.058657296	0.87230415	0.12360725	-0.21695653	0.93243897	-0.012008808	-0.089157157	1.3299704	-0.18527611	-0.13916531	1.3479705	0.14368109	-0.1760063	1.3809622	-0.028306491	-0.25628677	1.0050508	-0.23544912	-0.25482231	1.0060822	0.25209494	-0.14870152	0.76865879	-0.29309627	-0.07039909	0.80734521	0.28092777
189	0.752	0.096067816	-0.058483115	-0.019154664	-0.54214478	0.096878553	0.094778253	-0.042068528	-0.02737374	-0.091082542	-0.57990488	0.24668599	0.12271599	-0.041237916	-0.0051525186	0.0062691467	-0.52265004	0.23951627	0.040551856	-0.12085323	-0.06472816	-0.062489482	-0.61748478	0.29277381	0.062494463	0.016912252	0.388767	-0.13579157	-0.16326143	0.39487157	0.19228765	0.0070090231	0.38927957	-0.011803203	-0.15560708	0.36988418	0.068699655	-0.11878353	0.79482331	-0.18303435	-0.16597787	0.79037044	0.18597471	-0.034717761	0.87758195	-0.11681969	-0.053490404	0.8718788	0.12327173	-0.2123089	0.93016884	-0.01340257	-0.080309339	1.3298917	-0.18539721	-0.13153863	1.3483811	0.14321872	-0.16841619	1.3808553	-0.02910488	-0.24660655	1.0049053	-0.23682685	-0.24831312	1.0067423	0.25019582	-0.13907823	0.76810188	-0.29336583	-0.066363883	0.80627607	0.28155269
190	0.756	0.096047237	-0.058626823	-0.019016305	-0.52851672	0.10207944	0.095847445	-0.041446887	-0.02755575	-0.091067819	-0.56603225	0.25169609	0.12332142	-0.041150805	-0.0051619699	0.0061997016	-0.50956039	0.24391121	0.040741095	-0.12077182	-0.064432321	-0.062683606	-0.60405226	0.29772337	0.063205722	0.021279995	0.38708496	-0.13599105	-0.14863976	0.39415424	0.19147704	0.011999706	0.38706834	-0.012082988	-0.14233179	0.36952011	0.067343054	-0.11317553	0.79474745	-0.1830964	-0.15930945	0.78947594	0.18576937	-0.028740608	0.87843275	-0.11744345	-0.048401407	0.87167421	0.12294146	-0.20621899	0.92767709	-0.01564375	-0.071444254	1.3299248	-0.1854355	-0.12383564	1.3489572	0.14282279	-0.16073794	1.3808669	-0.029918993	-0.23693941	1.0049855	-0.23812293	-0.24206262	1.0077499	0.24827478	-0.12918806	0.7678262	-0.29359615	-0.062675488	0.80542834	0.28210403
191	0.76	0.096125223	-0.058746704	-0.018875619	-0.51436345	0.10710702	0.096939394	-0.040938032	-0.027549261	-0.090775134	-0.55194702	0.25631788	0.12389657	-0.040824301	-0.0052115978	0.0064383423	-0.49610646	0.24800761	0.041150893	-0.12067433	-0.064083941	-0.062457755	-0.59040398	0.30241599	0.064126491	0.025418283	0.38529265	-0.13591074	-0.13397552	0.39358599	0.19051675	0.016362754	0.38501551	-0.011970872	-0.12892605	0.36919756	0.065825218	-0.10682264	0.79447516	-0.18345661	-0.15233852	0.78884216	0.18550783	-0.022812972	0.87904693	-0.11805643	-0.04336214	0.87169441	0.12260867	-0.19898027	0.92585915	-0.017927073	-0.062575708	1.3300396	-0.18538815	-0.11611244	1.3496568	0.14249477	-0.15306167	1.3809603	-0.030689928	-0.22734527	1.0052003	-0.23934919	-0.235914	1.0089559	0.24633638	-0.11902327	0.76778462	-0.2937947	-0.059139997	0.80478673	0.28260927
192	0.764	0.096265398	-0.058816355	-0.018773504	-0.49995453	0.11178241	0.098035016	-0.040547038	-0.027462145	-0.090317258	-0.53767251	0.26053828	0.12443242	-0.04034231	-0.0053321993	0.0069097809	-0.48228166	0.25182047	0.041788787	-0.12059026	-0.063714592	-0.061945408	-0.57659521	0.30680706	0.065195939	0.029345392	0.38353138	-0.13560525	-0.11914353	0.39320093	0.18946881	0.020159076	0.38334161	-0.01155093	-0.11528237	0.36904236	0.064305674	-0.099888366	0.7939941	-0.18400801	-0.14511835	0.78838576	0.18518484	-0.016961978	0.87946528	-0.11863447	-0.038335937	0.87193752	0.12226602	-0.19223876	0.92549273	-0.019437305	-0.053711435	1.3302144	-0.1852424	-0.10841469	1.3504488	0.14222817	-0.14554877	1.3811299	-0.031270778	-0.21785647	1.0054744	-0.24053146	-0.22968821	1.0102423	0.24439078	-0.10858155	0.76793424	-0.29395761	-0.055552006	0.80432039	0.28310136
193	0.768	0.096408948	-0.0588499	-0.018680431	-0.48548198	0.11602636	0.099099688	-0.040270946	-0.027397381	-0.089802996	-0.52322586	0.26442193	0.12491254	-0.039837655	-0.0055336309	0.0075230205	-0.46824551	0.25544957	0.042415397	-0.12054045	-0.063346393	-0.061298976	-0.5626494	0.31088786	0.06628614	0.03310066	0.38194173	-0.13510159	-0.10409114	0.3930832	0.18835406	0.023441383	0.38219349	-0.010928123	-0.1013118	0.36922868	0.062808656	-0.092772735	0.79329164	-0.18460525	-0.13775564	0.78804797	0.1847941	-0.011215877	0.87977129	-0.11915177	-0.033306214	0.87240279	0.12189154	-0.18688431	0.92655294	-0.020150818	-0.044861702	1.3304348	-0.18498943	-0.10078428	1.3513156	0.14201465	-0.13826184	1.3814015	-0.031619425	-0.20848514	1.0057538	-0.24169847	-0.22340457	1.0115603	0.24249089	-0.097859035	0.76825644	-0.29406885	-0.051839954	0.80399304	0.28360544
194	0.772	0.096509402	-0.058880079	-0.018550904	-0.47090783	0.11991399	0.10014552	-0.040099955	-0.027389167	-0.089294776	-0.50858467	0.26808744	0.12533467	-0.039408004	-0.0057820361	0.0081844619	-0.4541461	0.25897112	0.042768428	-0.12052991	-0.062991485	-0.060650196	-0.54854984	0.31467	0.067243332	0.036690404	0.38062691	-0.13441386	-0.088903389	0.39331408	0.18716181	0.026284453	0.38159865	-0.010188953	-0.087143919	0.3698931	0.061270232	-0.085720131	0.79239275	-0.18521281	-0.13036176	0.78781213	0.18433794	-0.0055828931	0.88004878	-0.11960447	-0.02827092	0.87308987	0.12146508	-0.18231342	0.9281515	-0.020518053	-0.036042591	1.330694	-0.18463492	-0.093254912	1.3522469	0.14184389	-0.13111624	1.3817959	-0.031849462	-0.19923701	1.0060084	-0.24287955	-0.21721248	1.0129156	0.24071591	-0.086866299	0.76875041	-0.29411745	-0.048024917	0.80378585	0.28414098
195	0.776	0.096562115	-0.058922985	-0.018367387	-0.45603288	0.12360529	0.10125209	-0.040009049	-0.027403144	-0.088832847	-0.49371523	0.27163795	0.12571286	-0.039089159	-0.0060222855	0.0088154465	-0.43995932	0.26235187	0.042841248	-0.12054834	-0.062658589	-0.060097741	-0.53428264	0.31814991	0.067953998	0.040057924	0.37961433	-0.13357666	-0.073763422	0.39393337	0.1859035	0.028741076	0.38145024	-0.0093947352	-0.073033285	0.37105273	0.059670256	-0.078562656	0.79137455	-0.18594019	-0.12301641	0.78770085	0.1838323	-3.065805e-05	0.88033433	-0.12001853	-0.023227812	0.87399308	0.12098941	-0.1777732	0.92936979	-0.020580515	-0.027274838	1.330994	-0.18419865	-0.085839284	1.353229	0.14170681	-0.12399946	1.3823125	-0.032081856	-0.19011177	1.006232	-0.24410719	-0.2112259	1.0143291	0.23913238	-0.075646836	0.76941052	-0.29411686	-0.044136713	0.80370283	0.28472673
196	0.78	0.096593762	-0.058975198	-0.01813494	-0.44067173	0.1272262	0.1025393	-0.039949411	-0.027389525	-0.088460268	-0.47863405	0.27509436	0.12605073	-0.038869921	-0.0062071405	0.0093543706	-0.42559127	0.26550861	0.042790086	-0.12057705	-0.062363466	-0.059707761	-0.51986884	0.32128837	0.068388204	0.043144849	0.37887306	-0.13266801	-0.058836442	0.39493338	0.18462865	0.030847773	0.38156417	-0.0085711865	-0.059050602	0.37263374	0.058067844	-0.071098799	0.79031467	-0.18685297	-0.1157565	0.78776031	0.18330119	0.0054877525	0.88059638	-0.12042693	-0.018192968	0.87509081	0.12047938	-0.17311426	0.93009977	-0.02009737	-0.018587608	1.3313401	-0.18371135	-0.078536676	1.3542395	0.14160021	-0.11686569	1.3829344	-0.032348657	-0.18109579	1.0064359	-0.2454044	-0.20547418	1.0158143	0.23777479	-0.064258402	0.77021928	-0.29409369	-0.04018982	0.80375548	0.28537902
197	0.784	0.096625503	-0.059027402	-0.017876358	-0.42475352	0.13080438	0.10411133	-0.03986315	-0.02733327	-0.08820943	-0.46339432	0.27840546	0.12633415	-0.038717605	-0.0063132244	0.0097530405	-0.41102021	0.26839188	0.042716924	-0.12060222	-0.062123452	-0.059508065	-0.50535555	0.32402863	0.068581524	0.045967745	0.37836827	-0.13179737	-0.044203203	0.3962754	0.18339072	0.032655191	0.38175934	-0.0077329822	-0.045065107	0.37456011	0.056542816	-0.063578382	0.78924181	-0.18778708	-0.10858906	0.78804185	0.18276801	0.01098741	0.88075523	-0.12084413	-0.013182338	0.87634589	0.11996057	-0.16836014	0.93075627	-0.019408917	-0.010019337	1.3317328	-0.18320554	-0.071357031	1.3552511	0.14152482	-0.10972713	1.3836429	-0.032624827	-0.1721698	1.0066379	-0.24677455	-0.199927	1.0173659	0.23664318	-0.05275565	0.77116216	-0.29406828	-0.036177204	0.80394779	0.28611139
